<svg width="100" height="100" viewBox="0 0 100 100" fill="none" xmlns="http://www.w3.org/2000/svg">
<path id="Liquid" d="M48 36.5C31.2 36.5 27 26.1667 27 21H72C72 26.1667 67.8 36.5 51 36.5H48Z" fill="#FF007F" fill-opacity="0.85"/>
<g id="Ice"/>
<g id="Garnish" transform="translate(5 2) rotate(10 50 50)"/>
<path d="M48 36.5C31.2 36.5 27 26.1667 27 21H72C72 26.1667 67.8 36.5 51 36.5H48Z" fill="#FF007F" fill-opacity="0.5"/>
<path id="LiquidOverlay" d="M51.5 76L65.5 82H34.1666L48.1666 76V38.5C39.6666 38.6667 23.1666 34.8 25.1666 18H74.5C76.5 34.8 60 38.6667 51.5 38.5V76Z" fill="white" fill-opacity="0.2" stroke="black"/>
<g id="GarnishRim"/>
</svg>
