<svg width="100" height="100" viewBox="0 0 100 100" fill="none" xmlns="http://www.w3.org/2000/svg">
<path id="Liquid" d="M60.9229 47.5C63.3229 62.7 54.9229 67.8333 50.4229 68.5C45.9229 67.8333 37.5229 62.7 39.9229 47.5C39.9229 47.5 43.7229 30.9 40.9229 20.5H59.9229C57.1229 30.9 60.9229 47.5 60.9229 47.5Z" fill="#FF007F" fill-opacity="0.85"/>
<g id="Ice"/>
<g id="Garnish" transform="translate(5 2) rotate(10 50 50)"/>
<path id="LiquidOverlay" d="M60.9229 47.5C63.3229 62.7 54.9229 67.8333 50.4229 68.5C45.9229 67.8333 37.5229 62.7 39.9229 47.5C39.9229 47.5 43.7229 30.9 40.9229 20.5H59.9229C57.1229 30.9 60.9229 47.5 60.9229 47.5Z" fill="#FF007F" fill-opacity="0.5"/>
<path d="M52.5 82.5L65 87.5H36L48.5 82.5V70C42.8333 68.8333 32.9 61.6 38.5 42C39.6667 36 40.8 21.8 36 13H65C60.2 21.8 61.3333 36 62.5 42C68.1 61.6 58.1667 68.8333 52.5 70V82.5Z" fill="white" fill-opacity="0.2" stroke="black"/>
<g id="GarnishRim"/>
</svg>
